<svg width="64" height="13" viewBox="0 0 64 13" fill="none" xmlns="http://www.w3.org/2000/svg">
<path fill-rule="evenodd" clip-rule="evenodd" d="M9.72529 2.94565C9.72529 4.57264 8.40551 5.89162 6.77743 5.89162C5.14928 5.89162 3.8295 4.57264 3.8295 2.94565C3.8295 1.31898 5.14928 0 6.77743 0C8.40551 0 9.72529 1.31898 9.72529 2.94565ZM2.94793 6.62813C1.31984 6.62813 0 7.94672 0 9.57372C0 11.2006 1.31984 12.5194 2.94793 12.5194C4.57608 12.5194 5.89598 11.2006 5.89598 9.57372C5.89598 7.94672 4.57608 6.62813 2.94793 6.62813ZM10.6069 6.62787C8.97879 6.62787 7.65894 7.94672 7.65894 9.57372C7.65894 11.2006 8.97879 12.5194 10.6069 12.5194C12.235 12.5194 13.5548 11.2006 13.5548 9.57372C13.5548 7.94672 12.235 6.62787 10.6069 6.62787Z" fill="url(#paint0_radial_77_344)"/>
<path fill-rule="evenodd" clip-rule="evenodd" d="M23.9277 9.5388C23.9661 9.9758 24.3159 10.5321 24.922 10.5321H25.2766C25.414 10.5321 25.5267 10.4195 25.5267 10.282V2.48937H25.5251C25.518 2.35809 25.4094 2.25295 25.2766 2.25295H24.1778C24.0449 2.25295 23.9364 2.35809 23.929 2.48937H23.9277V3.12257C23.2545 2.29338 22.1931 1.94922 21.1288 1.94922C18.7095 1.94922 16.7483 3.91046 16.7483 6.32992C16.7483 8.74951 18.7095 10.7108 21.1288 10.7108V10.711C22.1931 10.711 23.3531 10.2981 23.9276 9.5378L23.9277 9.5388ZM21.1331 9.17761C19.5944 9.17761 18.3471 7.90277 18.3471 6.32992C18.3471 4.75734 19.5944 3.48243 21.1331 3.48243C22.6717 3.48243 23.9189 4.75734 23.9189 6.32992C23.9189 7.90277 22.6717 9.17761 21.1331 9.17761Z" fill="#B0B0B0"/>
<path fill-rule="evenodd" clip-rule="evenodd" d="M41.8288 9.5388C41.8673 9.9758 42.2171 10.5321 42.8231 10.5321H43.1777C43.3152 10.5321 43.4277 10.4195 43.4277 10.282V2.48937H43.4263C43.4191 2.35809 43.3104 2.25295 43.1777 2.25295H42.0789C41.9461 2.25295 41.8375 2.35809 41.8301 2.48937H41.8288V3.12257C41.1556 2.29338 40.0942 1.94922 39.0298 1.94922C36.6106 1.94922 34.6494 3.91046 34.6494 6.32992C34.6494 8.74951 36.6106 10.7108 39.0298 10.7108V10.711C40.0942 10.711 41.2542 10.2981 41.8287 9.5378L41.8288 9.5388ZM39.0341 9.17761C37.4956 9.17761 36.2481 7.90277 36.2481 6.32992C36.2481 4.75734 37.4956 3.48243 39.0341 3.48243C40.5728 3.48243 41.82 4.75734 41.82 6.32992C41.82 7.90277 40.5728 9.17761 39.0341 9.17761Z" fill="#B0B0B0"/>
<path fill-rule="evenodd" clip-rule="evenodd" d="M61.8404 9.5388C61.8789 9.9758 62.2287 10.5321 62.8347 10.5321H63.1893C63.3267 10.5321 63.4395 10.4195 63.4395 10.282V2.48937H63.4379C63.4307 2.35809 63.3222 2.25295 63.1893 2.25295H62.0905C61.9577 2.25295 61.8491 2.35809 61.8418 2.48937H61.8404V3.12257C61.1673 2.29338 60.1059 1.94922 59.0416 1.94922C56.6222 1.94922 54.661 3.91046 54.661 6.32992C54.661 8.74951 56.6222 10.7108 59.0416 10.7108V10.711C60.1059 10.711 61.2658 10.2981 61.8403 9.5378L61.8404 9.5388ZM59.0458 9.17761C57.5072 9.17761 56.2597 7.90277 56.2597 6.32992C56.2597 4.75734 57.5072 3.48243 59.0458 3.48243C60.5844 3.48243 61.8317 4.75734 61.8317 6.32992C61.8317 7.90277 60.5844 9.17761 59.0458 9.17761Z" fill="#B0B0B0"/>
<path fill-rule="evenodd" clip-rule="evenodd" d="M53.272 9.80667L53.2715 5.77432H53.2716C53.2716 3.50131 51.8376 1.9679 49.551 1.9679C48.4595 1.9679 47.5647 2.5991 47.2487 3.14131C47.1804 2.71734 46.9553 2.27169 46.2573 2.27169H45.9015C45.7639 2.27169 45.6515 2.38435 45.6515 2.52182V9.55821V9.55927V10.3151H45.6529C45.6601 10.4462 45.7687 10.5515 45.9016 10.5515H47.0003C47.0172 10.5515 47.0337 10.5495 47.0496 10.5463C47.0569 10.5449 47.0637 10.5421 47.0707 10.5401C47.0789 10.5376 47.0874 10.5356 47.0952 10.5324C47.105 10.5284 47.1138 10.5229 47.1229 10.5179C47.1274 10.5152 47.132 10.5132 47.1363 10.5104C47.1473 10.5033 47.1574 10.4948 47.1671 10.4861C47.1687 10.4845 47.1706 10.4834 47.1722 10.482C47.1831 10.4714 47.1931 10.4598 47.2019 10.4476L47.202 10.4475C47.2295 10.4097 47.2462 10.3642 47.2489 10.3151H47.2503V5.71181C47.2503 4.49104 48.2401 3.50131 49.4609 3.50131C50.6817 3.50131 51.6714 4.49104 51.6714 5.71181L51.6724 9.55954L51.6727 9.55821C51.6727 9.5616 51.6732 9.56513 51.6732 9.56878V10.3151H51.6747C51.682 10.4462 51.7905 10.5515 51.9234 10.5515H53.0222C53.0391 10.5515 53.0555 10.5495 53.0714 10.5463C53.0779 10.5451 53.0839 10.5426 53.0903 10.5408C53.0992 10.5382 53.1085 10.5359 53.1171 10.5324C53.1261 10.5287 53.1343 10.5235 53.1428 10.5187C53.148 10.5158 53.1534 10.5137 53.1584 10.5104C53.1685 10.5037 53.1778 10.4957 53.187 10.4877C53.1893 10.4856 53.1919 10.484 53.1941 10.4818C53.2045 10.4717 53.2138 10.4609 53.2223 10.4495C53.2229 10.4486 53.2235 10.448 53.2242 10.4471C53.2513 10.4097 53.2678 10.3645 53.2707 10.3158C53.2707 10.3154 53.2708 10.3151 53.2708 10.3151H53.2723V9.80681L53.272 9.80667Z" fill="#B0B0B0"/>
<path fill-rule="evenodd" clip-rule="evenodd" d="M28.1515 8.4226C28.885 8.93076 29.6856 9.17756 30.4551 9.17756C31.1881 9.17756 31.9458 8.79755 31.9458 8.13616C31.9458 7.2531 30.2946 7.1157 29.2572 6.76309C28.2195 6.41048 27.3258 5.68158 27.3258 4.50118C27.3258 2.69496 28.9352 1.94897 30.4372 1.94897C31.389 1.94897 32.3709 2.26281 33.0075 2.71239C33.2268 2.87852 33.0933 3.06926 33.0933 3.06926L32.4856 3.93722C32.4173 4.03498 32.2978 4.11944 32.1264 4.01363C31.955 3.90789 31.3536 3.48225 30.4372 3.48225C29.5208 3.48225 28.9688 3.90549 28.9688 4.43009C28.9688 5.05916 29.6862 5.25701 30.5266 5.47143C31.9911 5.8662 33.5887 6.34072 33.5887 8.13616C33.5887 9.72756 32.1002 10.711 30.4551 10.711C29.2084 10.711 28.1469 10.3556 27.2567 9.70236C27.0713 9.51674 27.2008 9.34443 27.2008 9.34443L27.8055 8.48085C27.9285 8.31938 28.0837 8.37571 28.1515 8.4226Z" fill="#B0B0B0"/>
<defs>
<radialGradient id="paint0_radial_77_344" cx="0" cy="0" r="1" gradientUnits="userSpaceOnUse" gradientTransform="translate(-7.9806 -1.99768) rotate(147.029) scale(7.13816 6.9334)">
<stop stop-color="#2F2F2F"/>
<stop offset="0.635417" stop-color="#B0B0B0"/>
<stop offset="1" stop-color="#7E7E7E"/>
</radialGradient>
</defs>
</svg>
