<svg width="45" height="17" viewBox="0 0 45 17" fill="none" xmlns="http://www.w3.org/2000/svg">
<path d="M23.1497 1.896H24.8181V10.3648C24.8181 12.6084 23.8364 14.1568 21.5359 14.1568C20.8556 14.1671 20.1786 14.0602 19.5346 13.8408V12.2187C20.084 12.4317 20.6687 12.5389 21.2579 12.5347C22.6672 12.5347 23.1539 11.692 23.1539 10.4765L23.1497 1.896Z" fill="#808080"/>
<path d="M27.858 1.24509C28.0068 1.23444 28.1562 1.25591 28.296 1.30804C28.4358 1.36017 28.5627 1.44175 28.6682 1.54724C28.7737 1.65274 28.8553 1.77968 28.9074 1.91946C28.9595 2.05924 28.981 2.2086 28.9703 2.35741C28.9703 2.65242 28.8532 2.93534 28.6446 3.14394C28.4359 3.35254 28.153 3.46973 27.858 3.46973C27.563 3.46973 27.2801 3.35254 27.0715 3.14394C26.8629 2.93534 26.7457 2.65242 26.7457 2.35741C26.735 2.2086 26.7565 2.05924 26.8087 1.91946C26.8608 1.77968 26.9424 1.65274 27.0479 1.54724C27.1533 1.44175 27.2803 1.36017 27.4201 1.30804C27.5599 1.25591 27.7092 1.23444 27.858 1.24509ZM27.0427 4.80536H28.6375V14.0747H27.0427V4.80536Z" fill="#808080"/>
<path d="M31.0455 4.80324H32.6023V6.4338C33.1395 5.34044 34.077 4.56097 35.8845 4.67263V6.22946C33.8452 6.01879 32.6023 6.63815 32.6023 8.60157V14.0789H31.0455V4.80324Z" fill="#808080"/>
<path d="M43.3548 12.4041C42.7607 13.628 41.6484 14.2579 40.2221 14.2579C37.7573 14.2579 36.5144 12.1639 36.5144 9.43786C36.5144 6.82348 37.8121 4.6178 40.4075 4.6178C41.76 4.6178 42.7986 5.22873 43.3569 6.43375V4.80318H44.9516V14.0725H43.3569L43.3548 12.4041ZM40.6477 12.7748C42.076 12.7748 43.3548 11.8669 43.3548 9.80864V9.05866C43.3548 7.00044 42.1877 6.09247 40.8268 6.09247C39.0277 6.09247 38.1007 7.27852 38.1007 9.42944C38.1092 11.6625 38.9982 12.7748 40.6498 12.7748H40.6477Z" fill="#808080"/>
<path d="M15.3813 7.53346L8.51357 0.665708L7.84787 0L2.67809 5.16977L0.314409 7.53346C0.196055 7.65196 0.129578 7.81259 0.129578 7.98007C0.129578 8.14756 0.196055 8.30819 0.314409 8.42669L5.03757 13.1498L7.84787 15.9601L13.0176 10.7904L13.0977 10.7103L15.3813 8.42669C15.4997 8.30819 15.5662 8.14756 15.5662 7.98007C15.5662 7.81259 15.4997 7.65196 15.3813 7.53346ZM7.84787 10.3395L5.48839 7.98007L7.84787 5.6206L10.2073 7.98007L7.84787 10.3395Z" fill="#B0B0B0"/>
<path d="M7.84675 5.62056C7.10466 4.87839 6.68637 3.87274 6.68321 2.82322C6.68006 1.77369 7.09229 0.765547 7.8299 0.0189209L2.66644 5.18027L5.47674 7.99057L7.84675 5.62056Z" fill="url(#paint0_linear_77_367)"/>
<path d="M10.2126 7.97375L7.8468 10.3395C8.216 10.7085 8.50887 11.1466 8.70869 11.6288C8.90851 12.111 9.01136 12.6279 9.01136 13.1498C9.01136 13.6718 8.90851 14.1887 8.70869 14.6709C8.50887 15.1531 8.216 15.5912 7.8468 15.9601L13.0229 10.7841L10.2126 7.97375Z" fill="url(#paint1_linear_77_367)"/>
<defs>
<linearGradient id="paint0_linear_77_367" x1="7.42541" y1="3.2337" x2="4.13058" y2="6.52854" gradientUnits="userSpaceOnUse">
<stop offset="0.18" stop-color="#7E7E7E"/>
<stop offset="1" stop-color="#B0B0B0"/>
</linearGradient>
<linearGradient id="paint1_linear_77_367" x1="208.576" y1="489.394" x2="322.373" y2="415.64" gradientUnits="userSpaceOnUse">
<stop offset="0.18" stop-color="#7E7E7E"/>
<stop offset="1" stop-color="#7E7E7E"/>
</linearGradient>
</defs>
</svg>
