<svg width="52" height="16" viewBox="0 0 52 16" fill="none" xmlns="http://www.w3.org/2000/svg">
<path fill-rule="evenodd" clip-rule="evenodd" d="M41.3654 11.171C40.6243 11.4727 40.0394 12.5149 39.15 13.1072C39.0948 13.1439 39.0397 13.1623 39.0029 13.1623C38.9294 13.1623 38.8374 13.0889 38.8374 12.7583C38.8374 11.6196 39.2051 11.0687 39.5177 10.2606C40.6024 7.45073 42.4592 5.04488 44.1139 2.41866C44.2426 2.21664 44.3161 1.99626 44.3161 1.75751C44.3161 1.55549 44.2426 1.3902 44.1507 1.18819C44.0771 1.0229 43.7462 0.875977 43.3785 0.875977C43.1763 0.875977 42.9924 0.894342 42.7534 0.894342C41.8893 0.894342 41.7055 2.16154 41.5032 2.49212C40.1244 4.8245 38.5433 7.70784 37.7344 9.74638C37.557 10.2034 37.3654 10.6604 37.2197 11.1294C36.4203 11.3606 35.8215 12.4834 34.8847 13.1072C34.8296 13.1439 34.7744 13.1623 34.7376 13.1623C34.6641 13.1623 34.5722 13.0889 34.5722 12.7583C34.5722 11.6196 34.9399 11.0687 35.2524 10.2606C36.3371 7.45073 38.194 5.04488 39.8486 2.41866C39.9773 2.21664 40.0508 1.99626 40.0508 1.75751C40.0508 1.55549 39.9773 1.3902 39.8854 1.18819C39.8118 1.0229 39.4809 0.875977 39.1132 0.875977C38.911 0.875977 38.7271 0.894342 38.4881 0.894342C37.624 0.894342 37.4402 2.16154 37.238 2.49212C35.8591 4.8245 34.278 7.70784 33.4691 9.74638C33.4048 9.91205 33.3386 10.0777 33.2734 10.244C33.2533 10.2547 33.2327 10.2664 33.2117 10.279C32.2741 10.8299 31.4835 11.8033 30.3437 12.4644C30.1231 12.593 29.4428 13.0705 28.8913 13.0705C28.7626 13.0705 28.6523 13.0338 28.542 12.9787C28.3765 12.9052 28.211 12.5563 28.211 12.4461C28.211 12.3542 28.2294 12.3359 28.4133 12.2257C30.0311 11.2523 31.3548 9.85657 32.4947 8.46081C32.9175 7.94659 33.4691 6.9365 33.4691 6.20189C33.4691 5.7244 33.3036 5.17344 32.7337 4.97142C32.3292 4.8245 31.8696 4.75104 31.5019 4.75104C30.5275 4.75104 29.8105 5.1918 29.406 5.6142C28.9943 6.05333 28.596 6.50423 28.2259 6.97097C27.8393 6.63753 27.294 6.49573 26.777 6.49573C26.1703 6.49573 25.0305 7.24871 24.4422 7.68947C24.3502 7.76293 24.2951 7.79967 24.2583 7.79967C24.2399 7.79967 24.2215 7.7813 24.2215 7.74457C24.2215 7.7262 24.2583 7.56092 24.2583 7.26707C24.2583 7.00996 24.2031 6.67939 23.9641 6.27535C23.909 6.18353 23.5781 5.98151 23.1736 5.98151C22.6772 5.98151 22.2176 6.22026 22.2176 6.47737C22.2176 6.66102 22.3831 6.73448 22.3831 6.89977C22.3831 6.9916 22.3095 7.414 22.1992 7.81803C21.8867 8.9934 21.5006 10.1504 21.0961 11.3074C20.8755 11.9502 20.1401 12.5195 20.1401 13.2174C20.1401 13.4378 20.2872 13.7316 20.4894 13.952C20.8203 14.3193 21.0226 14.4479 21.3167 14.4479C21.4454 14.4479 21.5925 14.4111 21.7212 14.301C21.997 14.0622 22.1441 13.8235 22.2176 13.4929C22.6956 11.3258 24.0745 9.85657 25.6004 8.88321C26.1152 8.55264 26.8138 8.2037 26.9057 8.2037C27 8.2037 27.1474 8.24715 27.2959 8.28949C26.8694 8.9845 26.5238 9.71745 26.299 10.4994C26.2255 10.7565 26.1887 10.9952 26.1887 11.2523C26.1887 11.6747 26.2806 12.1155 26.4277 12.5379C26.6299 13.1256 26.9609 13.6398 27.4205 13.8786C28.2662 14.3193 28.8729 14.5581 29.4244 14.5581C29.737 14.5581 29.976 14.503 30.2334 14.3561C31.4417 13.6731 32.1826 13.155 32.7176 12.6948C32.7322 13.1614 32.8243 13.4199 33.1565 13.7684C33.4875 14.1173 34.0022 14.4295 34.6825 14.5764C34.7928 14.5948 34.9031 14.6132 35.0134 14.6132C35.7917 14.6132 36.5407 13.9813 37.1182 13.3548C37.1851 13.4915 37.2823 13.622 37.4218 13.7684C37.7527 14.1173 38.2675 14.4295 38.9478 14.5764C39.0581 14.5948 39.1684 14.6132 39.2787 14.6132C40.1904 14.6132 41.0619 13.7461 41.6647 13.0364C41.8656 13.4515 42.427 13.8619 43.1027 14.1908C43.2866 14.2826 43.5072 14.3377 43.7094 14.3377C44.5 14.3377 45.0699 13.6949 45.5111 13.2174C46.651 11.9686 47.2761 10.4259 47.7541 8.47918C47.7908 8.33226 47.846 8.27716 47.9195 8.27716C48.1034 8.27716 48.3424 8.27716 48.5998 8.24043C49.0962 8.16697 49.4822 8.00168 49.9419 7.92822C50.2176 7.87313 50.1809 7.7813 50.4382 7.68947C50.6221 7.61601 50.7692 7.54255 50.7692 7.3589C50.7692 7.04669 50.1992 6.71612 49.3352 6.71612C48.6549 6.71612 48.2505 6.77121 47.9747 6.77121C47.5518 6.77121 47.4415 6.64266 47.1658 5.92641C47.1658 5.92641 47.4415 6.64266 47.1658 5.92641C47.1106 5.77949 47.0554 5.70603 46.89 5.55911C46.5039 5.22853 46.0259 5.11834 45.6398 5.11834C44.7206 5.11834 43.93 6.05497 43.3785 6.84467C43.2498 7.02833 43.0659 7.17525 42.9373 7.37727C42.1799 8.51205 41.4548 9.79171 41.3654 11.171ZM17.8604 4.91633C18.32 4.91633 18.5774 4.8796 18.6326 4.8796C18.6877 4.8796 18.7245 4.89796 18.7245 4.95306C18.7245 4.98979 18.7061 5.04488 18.5774 5.32036C17.4559 7.7262 16.6838 10.1688 16.0035 12.8685C15.9851 12.9419 15.93 13.2174 15.93 13.4929C15.93 13.75 16.0035 14.0255 16.2609 14.1724C16.7573 14.4662 17.1618 14.5948 17.4375 14.5948C17.842 14.5948 18.0442 14.3377 18.0442 13.9153C18.0442 13.548 18.0626 13.1623 18.1178 12.8685C18.6326 10.1688 19.4047 8.05678 20.5997 5.85295C21.1697 4.80613 21.2432 4.75104 21.2432 4.65921C21.2432 4.62248 21.2248 4.56739 21.188 4.51229C21.9234 4.347 22.8059 4.23681 23.6148 4.23681C23.7068 4.23681 24.0745 4.36537 24.1296 4.42046C24.2583 4.54902 24.387 4.67758 24.6076 4.67758C24.7915 4.67758 25.104 4.54902 25.2143 4.47556C25.4717 4.29191 25.6004 4.08989 25.6004 3.75932C25.6004 3.44711 24.4422 2.67577 23.6332 2.67577C22.6404 2.67577 21.7396 2.80432 20.8939 2.96961C20.5262 3.04307 19.2025 3.24509 18.2465 3.24509C17.3272 3.24509 17.3824 3.11653 16.9963 3.11653C16.7757 3.11653 16.6654 3.22673 16.5735 3.31855C16.4815 3.41038 16.4264 3.77768 16.4264 4.10826C16.4264 4.27354 16.4264 4.4021 16.5183 4.51229C16.7941 4.84286 17.3272 4.91633 17.8604 4.91633C17.8604 4.91633 17.3272 4.91633 17.8604 4.91633ZM31.4835 6.40391C31.4835 6.5692 31.4284 6.67939 31.2078 7.02833C30.9871 7.37726 31.0791 7.37727 30.8033 7.74457C30.2701 8.46081 29.6083 9.17706 28.7442 9.96676C28.5052 10.1871 28.4684 10.1871 28.4317 10.1871C28.4133 10.1871 28.3765 10.1688 28.3765 10.132C28.3765 10.077 28.3949 10.0035 28.5787 9.61782C29.1487 8.42408 29.8473 7.63438 30.6194 6.86304C31.0423 6.44064 31.2997 6.29372 31.3916 6.29372C31.4468 6.29372 31.4835 6.31208 31.4835 6.40391C31.4835 6.40391 31.4835 6.31208 31.4835 6.40391ZM45.6214 6.8814C45.6398 6.8814 45.6582 6.89977 45.6766 6.9365C45.695 6.9916 45.7317 7.04669 45.8237 7.12015C45.8972 7.17525 45.8972 7.43236 45.8972 7.63438C45.8972 9.4158 44.886 10.885 43.8933 12.3726C43.6726 12.7032 43.544 12.7583 43.4336 12.7583C43.3417 12.7583 43.1946 12.5195 43.1395 12.3726C43.0659 12.1706 43.0476 11.9318 43.0476 11.84C43.0476 10.4075 44.408 8.27716 45.3089 7.10179C45.456 6.89977 45.5663 6.8814 45.6214 6.8814C45.6214 6.8814 45.5663 6.8814 45.6214 6.8814Z" fill="#B0B0B0"/>
<path d="M12.4481 2.90491H3.74318C2.94191 2.90491 2.29236 3.55377 2.29236 4.35418V13.0498C2.29236 13.8503 2.94191 14.4991 3.74318 14.4991H12.4481C13.2494 14.4991 13.8989 13.8503 13.8989 13.0498V4.35418C13.8989 3.55377 13.2494 2.90491 12.4481 2.90491Z" fill="#B0B0B0"/>
<path d="M11.6936 4.41211H9.54643C9.16182 4.41211 8.85004 4.72356 8.85004 5.10776V8.78892C8.85004 9.17312 9.16182 9.48457 9.54643 9.48457H11.6936C12.0782 9.48457 12.39 9.17312 12.39 8.78892V5.10776C12.39 4.72356 12.0782 4.41211 11.6936 4.41211Z" fill="white"/>
<path d="M6.64475 4.41211H4.49754C4.11293 4.41211 3.80115 4.72356 3.80115 5.10776V11.6875C3.80115 12.0717 4.11293 12.3831 4.49754 12.3831H6.64475C7.02936 12.3831 7.34115 12.0717 7.34115 11.6875V5.10776C7.34115 4.72356 7.02936 4.41211 6.64475 4.41211Z" fill="white"/>
</svg>
